<?xml version="1.0" encoding="UTF-8" standalone="no"?>
<!DOCTYPE svg PUBLIC "-//W3C//DTD SVG 1.1//EN" "http://www.w3.org/Graphics/SVG/1.1/DTD/svg11.dtd">
<svg version="1.1" xmlns="http://www.w3.org/2000/svg" xmlns:xlink="http://www.w3.org/1999/xlink" preserveAspectRatio="xMidYMid meet" viewBox="0 0 3000 3000" width="286" height="180"><defs><path d="M549.1 1576L704.77 1576L704.77 1640.63L462.29 1640.63L462.29 1263.35L549.1 1263.35L549.1 1576Z" id="b3uCHDdwt5"></path><path d="M549.1 1576L704.77 1576L704.77 1640.63L462.29 1640.63L462.29 1263.35L549.1 1263.35L549.1 1576Z" id="auiDzz8IS"></path><path d="M429.98 1263.35L429.98 1334.4L274.29 1334.4L274.29 1430.4L359.53 1430.4L359.53 1490.75L274.29 1491.29L274.29 1575.99L429.98 1576.91L429.98 1640.63L187.5 1640.63L187.5 1263.35L429.98 1263.35Z" id="a2PbFGBX12"></path><path d="M429.98 1263.35L429.98 1334.4L274.29 1334.4L274.29 1430.4L359.53 1430.4L359.53 1490.75L274.29 1491.29L274.29 1575.99L429.98 1576.91L429.98 1640.63L187.5 1640.63L187.5 1263.35L429.98 1263.35Z" id="cMFayrHO7"></path><path d="M983.47 1263.35L983.47 1334.4L827.78 1334.4L827.78 1430.4L913.02 1430.4L913.02 1490.75L827.78 1491.29L827.78 1575.99L983.47 1576.91L983.47 1640.63L740.99 1640.63L740.99 1263.35L983.47 1263.35Z" id="d12vozwo6F"></path><path d="M983.47 1263.35L983.47 1334.4L827.78 1334.4L827.78 1430.4L913.02 1430.4L913.02 1490.75L827.78 1491.29L827.78 1575.99L983.47 1576.91L983.47 1640.63L740.99 1640.63L740.99 1263.35L983.47 1263.35Z" id="czOi4eicL"></path><path d="M1111.59 1335.69L1180.57 1431.86L1193.13 1431.86L1261.66 1335.69L1262.51 1640.62L1348.71 1640.62L1348.71 1263.35L1245.26 1263.35L1186.58 1330.73L1131.13 1263.35L1024.81 1263.35L1024.81 1640.62L1111.59 1640.62L1111.59 1335.69Z" id="c1UF4Fqma0"></path><path d="M1111.59 1335.69L1180.57 1431.86L1193.13 1431.86L1261.66 1335.69L1262.51 1640.62L1348.71 1640.62L1348.71 1263.35L1245.26 1263.35L1186.58 1330.73L1131.13 1263.35L1024.81 1263.35L1024.81 1640.62L1111.59 1640.62L1111.59 1335.69Z" id="aLnjexlhc"></path><path d="M1638.34 1263.35L1638.34 1334.4L1482.66 1334.4L1482.66 1430.4L1567.9 1430.4L1567.9 1490.75L1482.66 1491.29L1482.66 1575.99L1638.34 1576.91L1638.34 1640.63L1395.86 1640.63L1395.86 1263.35L1638.34 1263.35Z" id="iuCYYeNmx"></path><path d="M1638.34 1263.35L1638.34 1334.4L1482.66 1334.4L1482.66 1430.4L1567.9 1430.4L1567.9 1490.75L1482.66 1491.29L1482.66 1575.99L1638.34 1576.91L1638.34 1640.63L1395.86 1640.63L1395.86 1263.35L1638.34 1263.35Z" id="g11vci39gy"></path><path d="M1913.32 1490.91L1913.32 1261.71L2000.53 1261.71L1999.84 1638.79L1901.6 1638.79L1760.98 1397.16L1763.03 1639.49L1676.23 1638.79L1676.23 1262.4L1777.61 1261.71L1913.32 1490.91Z" id="au3F8b7K9"></path><path d="M1913.32 1490.91L1913.32 1261.71L2000.53 1261.71L1999.84 1638.79L1901.6 1638.79L1760.98 1397.16L1763.03 1639.49L1676.23 1638.79L1676.23 1262.4L1777.61 1261.71L1913.32 1490.91Z" id="b1fbvgKqmv"></path><path d="M2028.52 1347.98L2027.79 1262.29L2325.15 1261.56L2325.15 1347.18L2223.08 1347.18L2222.92 1639.49L2137.65 1639.49L2137.65 1346.52L2028.52 1347.98Z" id="a4RLpyzv"></path><path d="M2028.52 1347.98L2027.79 1262.29L2325.15 1261.56L2325.15 1347.18L2223.08 1347.18L2222.92 1639.49L2137.65 1639.49L2137.65 1346.52L2028.52 1347.98Z" id="a1aaf9okTp"></path><path d="M2731.72 1574.86L2887.4 1574.86L2887.4 1639.49L2644.91 1639.49L2644.91 1262.21L2731.72 1262.21L2731.72 1574.86Z" id="b2l0fjq6Q"></path><path d="M2731.72 1574.36L2887.4 1574.36L2887.4 1638.99L2644.91 1638.99L2644.91 1261.71L2731.72 1261.71L2731.72 1574.36Z" id="c4ppXatn5e"></path><path d="M487.56 1576L643.23 1576L643.23 1640.63L400.75 1640.63L400.75 1263.35L487.56 1263.35L487.56 1576Z" id="d1AQwfxUh"></path><path d="M368.44 1263.35L368.44 1334.4L212.75 1334.4L212.75 1430.4L297.99 1430.4L297.99 1490.75L212.75 1491.29L212.75 1575.99L368.44 1576.91L368.44 1640.63L125.96 1640.63L125.96 1263.35L368.44 1263.35Z" id="b8whD6ZhAv"></path><path d="M921.93 1263.35L921.93 1334.4L766.24 1334.4L766.24 1430.4L851.48 1430.4L851.48 1490.75L766.24 1491.29L766.24 1575.99L921.93 1576.91L921.93 1640.63L679.45 1640.63L679.45 1263.35L921.93 1263.35Z" id="a62rfMNt3B"></path><path d="M1050.05 1335.69L1119.03 1431.86L1131.59 1431.86L1200.12 1335.69L1200.97 1640.62L1287.17 1640.62L1287.17 1263.35L1183.72 1263.35L1125.04 1330.73L1069.59 1263.35L963.27 1263.35L963.27 1640.62L1050.05 1640.62L1050.05 1335.69Z" id="b4rW8BL4IZ"></path><path d="M1576.8 1264.49L1576.8 1335.54L1421.12 1335.54L1421.12 1431.54L1506.36 1431.54L1506.36 1491.89L1421.12 1492.43L1421.12 1577.13L1576.8 1578.05L1576.8 1641.77L1334.32 1641.77L1334.32 1264.49L1576.8 1264.49Z" id="a27S9da9Sm"></path><path d="M1963.31 1347.98L1962.58 1262.29L2259.94 1261.56L2259.94 1347.18L2157.87 1347.18L2157.71 1639.49L2072.44 1639.49L2072.44 1346.52L1963.31 1347.98Z" id="bOIlnTmn3"></path><path d="M2239.66 1639.49L2346.03 1264.49" id="bM33IhDer"></path><path d="M2239.66 1639.49L2346.03 1264.49" id="d34Jrp7ju"></path><path d="M1852.05 1490.76L1852.05 1261.56L1939.26 1261.56L1938.57 1638.64L1840.33 1638.64L1699.71 1397.01L1701.76 1639.34L1614.96 1638.64L1614.96 1262.25L1716.34 1261.56L1852.05 1490.76Z" id="a1S8Z9D2xS"></path><path d="" id="bgFLYjPtr"></path><path d="M2370.01 1639.49L2457.43 1348.85L2542.51 1639.49L2617.76 1639.16L2501.61 1264.49L2413.24 1264.49L2292.56 1639.16L2370.01 1639.49Z" id="b2ALXNbV8i"></path><path d="M2414.21 1482.47L2499.22 1482.47L2515.33 1545.07L2398.99 1545.07L2414.21 1482.47Z" id="b3vrY7cwQh"></path><path d="M2313.84 1639.49L2401.26 1348.85L2486.34 1639.49L2561.59 1639.16L2445.44 1264.49L2357.07 1264.49L2236.39 1639.16L2313.84 1639.49Z" id="b4oNdrghI"></path><path d="M2355.02 1482.47L2442.05 1482.47L2458.54 1545.07L2339.45 1545.07L2355.02 1482.47Z" id="e1lvVzvUFy"></path><path d="M2670.16 1575.27L2825.84 1575.27L2825.84 1639.99L2583.35 1639.99L2583.35 1262.21L2670.16 1262.21L2670.16 1575.27Z" id="llKt9DIzn"></path></defs><g><g><g><use xlink:href="#b3uCHDdwt5" opacity="1" fill="#2be6ab" fill-opacity="1"></use><g><use xlink:href="#b3uCHDdwt5" opacity="1" fill-opacity="0" stroke="#000000" stroke-width="1" stroke-opacity="0"></use></g></g><g><use xlink:href="#auiDzz8IS" opacity="1" fill="#000000" fill-opacity="0"></use><g><use xlink:href="#auiDzz8IS" opacity="1" fill-opacity="0" stroke="#000000" stroke-width="0" stroke-opacity="1"></use></g></g><g><use xlink:href="#a2PbFGBX12" opacity="1" fill="#2be6ab" fill-opacity="1"></use><g><use xlink:href="#a2PbFGBX12" opacity="1" fill-opacity="0" stroke="#000000" stroke-width="1" stroke-opacity="0"></use></g></g><g><use xlink:href="#cMFayrHO7" opacity="1" fill="#000000" fill-opacity="0"></use><g><use xlink:href="#cMFayrHO7" opacity="1" fill-opacity="0" stroke="#000000" stroke-width="0" stroke-opacity="1"></use></g></g><g><use xlink:href="#d12vozwo6F" opacity="1" fill="#2be6ab" fill-opacity="1"></use><g><use xlink:href="#d12vozwo6F" opacity="1" fill-opacity="0" stroke="#000000" stroke-width="1" stroke-opacity="0"></use></g></g><g><use xlink:href="#czOi4eicL" opacity="1" fill="#000000" fill-opacity="0"></use><g><use xlink:href="#czOi4eicL" opacity="1" fill-opacity="0" stroke="#000000" stroke-width="0" stroke-opacity="1"></use></g></g><g><use xlink:href="#c1UF4Fqma0" opacity="1" fill="#2be6ab" fill-opacity="1"></use><g><use xlink:href="#c1UF4Fqma0" opacity="1" fill-opacity="0" stroke="#000000" stroke-width="1" stroke-opacity="0"></use></g></g><g><use xlink:href="#aLnjexlhc" opacity="1" fill="#000000" fill-opacity="0"></use><g><use xlink:href="#aLnjexlhc" opacity="1" fill-opacity="0" stroke="#000000" stroke-width="0" stroke-opacity="1"></use></g></g><g><use xlink:href="#iuCYYeNmx" opacity="1" fill="#2be6ab" fill-opacity="1"></use><g><use xlink:href="#iuCYYeNmx" opacity="1" fill-opacity="0" stroke="#000000" stroke-width="1" stroke-opacity="0"></use></g></g><g><use xlink:href="#g11vci39gy" opacity="1" fill="#000000" fill-opacity="0"></use><g><use xlink:href="#g11vci39gy" opacity="1" fill-opacity="0" stroke="#000000" stroke-width="0" stroke-opacity="1"></use></g></g><g><use xlink:href="#au3F8b7K9" opacity="1" fill="#000000" fill-opacity="0"></use><g><use xlink:href="#au3F8b7K9" opacity="1" fill-opacity="0" stroke="#000000" stroke-width="0" stroke-opacity="1"></use></g></g><g><use xlink:href="#b1fbvgKqmv" opacity="1" fill="#2be6ab" fill-opacity="1"></use><g><use xlink:href="#b1fbvgKqmv" opacity="1" fill-opacity="0" stroke="#000000" stroke-width="1" stroke-opacity="0"></use></g></g><g><use xlink:href="#a4RLpyzv" opacity="1" fill="#2be6ab" fill-opacity="1"></use><g><use xlink:href="#a4RLpyzv" opacity="1" fill-opacity="0" stroke="#000000" stroke-width="1" stroke-opacity="0"></use></g></g><g><use xlink:href="#a1aaf9okTp" opacity="1" fill="#000000" fill-opacity="0"></use><g><use xlink:href="#a1aaf9okTp" opacity="1" fill-opacity="0" stroke="#000000" stroke-width="0" stroke-opacity="1"></use></g></g><g><use xlink:href="#b2l0fjq6Q" opacity="1" fill="#2be6ab" fill-opacity="1"></use><g><use xlink:href="#b2l0fjq6Q" opacity="1" fill-opacity="0" stroke="#000000" stroke-width="1" stroke-opacity="0"></use></g></g><g><use xlink:href="#c4ppXatn5e" opacity="1" fill="#000000" fill-opacity="0"></use><g><use xlink:href="#c4ppXatn5e" opacity="1" fill-opacity="0" stroke="#000000" stroke-width="0" stroke-opacity="1"></use></g></g><g><use xlink:href="#d1AQwfxUh" opacity="0.85" fill="#6a23b5" fill-opacity="1"></use></g><g><use xlink:href="#b8whD6ZhAv" opacity="0.85" fill="#6a23b5" fill-opacity="1"></use></g><g><use xlink:href="#a62rfMNt3B" opacity="0.85" fill="#6a23b5" fill-opacity="1"></use></g><g><use xlink:href="#b4rW8BL4IZ" opacity="0.85" fill="#6a23b5" fill-opacity="1"></use></g><g><use xlink:href="#a27S9da9Sm" opacity="0.85" fill="#6a23b5" fill-opacity="1"></use></g><g><use xlink:href="#bOIlnTmn3" opacity="0.85" fill="#6a23b5" fill-opacity="1"></use></g><g><use xlink:href="#bM33IhDer" opacity="0.7" fill="#6a23b5" fill-opacity="1"></use></g><g><use xlink:href="#d34Jrp7ju" opacity="0.7" fill="#6a23b5" fill-opacity="1"></use></g><g><use xlink:href="#a1S8Z9D2xS" opacity="0.85" fill="#6a23b5" fill-opacity="1"></use></g><g><g><use xlink:href="#bgFLYjPtr" opacity="1" fill-opacity="0" stroke="#000000" stroke-width="1" stroke-opacity="1"></use></g></g><g><use xlink:href="#b2ALXNbV8i" opacity="1" fill="#2be6ab" fill-opacity="1"></use></g><g><use xlink:href="#b3vrY7cwQh" opacity="1" fill="#2be6ab" fill-opacity="1"></use></g><g><use xlink:href="#b4oNdrghI" opacity="0.85" fill="#6a23b5" fill-opacity="1"></use></g><g><use xlink:href="#e1lvVzvUFy" opacity="0.85" fill="#6a23b5" fill-opacity="1"></use></g><g><use xlink:href="#llKt9DIzn" opacity="0.85" fill="#6a23b5" fill-opacity="1"></use></g></g></g></svg>