<?xml version="1.0" encoding="UTF-8" standalone="no"?>
<!DOCTYPE svg PUBLIC "-//W3C//DTD SVG 1.1//EN" "http://www.w3.org/Graphics/SVG/1.1/DTD/svg11.dtd">
<svg version="1.1" xmlns="http://www.w3.org/2000/svg" xmlns:xlink="http://www.w3.org/1999/xlink" preserveAspectRatio="xMidYMid meet" viewBox="0 0 195 32" width="127.97" height="21"><defs><path d="M32.28 24.67L42.99 24.67L42.99 29.09L26.3 29.09L26.3 3.29L32.28 3.29L32.28 24.67Z" id="cyjhxnhSZ"></path><path d="M32.28 24.67L42.99 24.67L42.99 29.09L26.3 29.09L26.3 3.29L32.28 3.29L32.28 24.67Z" id="f21jlFH1gl"></path><path d="M24.08 3.29L24.08 8.15L13.37 8.15L13.37 14.71L19.23 14.71L19.23 18.84L13.37 18.87L13.37 24.67L24.08 24.73L24.08 29.09L7.4 29.09L7.4 3.29L24.08 3.29Z" id="c1fL9LpPiM"></path><path d="M24.08 3.29L24.08 8.15L13.37 8.15L13.37 14.71L19.23 14.71L19.23 18.84L13.37 18.87L13.37 24.67L24.08 24.73L24.08 29.09L7.4 29.09L7.4 3.29L24.08 3.29Z" id="b1yfhsxqK"></path><path d="M62.16 3.29L62.16 8.15L51.45 8.15L51.45 14.71L57.32 14.71L57.32 18.84L51.45 18.87L51.45 24.67L62.16 24.73L62.16 29.09L45.48 29.09L45.48 3.29L62.16 3.29Z" id="bU2O5BfzM"></path><path d="M62.16 3.29L62.16 8.15L51.45 8.15L51.45 14.71L57.32 14.71L57.32 18.84L51.45 18.87L51.45 24.67L62.16 24.73L62.16 29.09L45.48 29.09L45.48 3.29L62.16 3.29Z" id="b2Ah50qcHZ"></path><path d="M70.98 8.23L75.73 14.81L76.59 14.81L81.3 8.23L81.36 29.09L87.29 29.09L87.29 3.29L80.18 3.29L76.14 7.89L72.32 3.29L65.01 3.29L65.01 29.09L70.98 29.09L70.98 8.23Z" id="d1qVrzqF6u"></path><path d="M70.98 8.23L75.73 14.81L76.59 14.81L81.3 8.23L81.36 29.09L87.29 29.09L87.29 3.29L80.18 3.29L76.14 7.89L72.32 3.29L65.01 3.29L65.01 29.09L70.98 29.09L70.98 8.23Z" id="a4NDwBiery"></path><path d="M107.22 3.29L107.22 8.15L96.51 8.15L96.51 14.71L102.38 14.71L102.38 18.84L96.51 18.87L96.51 24.67L107.22 24.73L107.22 29.09L90.54 29.09L90.54 3.29L107.22 3.29Z" id="bmBgEH3ji"></path><path d="M107.22 3.29L107.22 8.15L96.51 8.15L96.51 14.71L102.38 14.71L102.38 18.84L96.51 18.87L96.51 24.67L107.22 24.73L107.22 29.09L90.54 29.09L90.54 3.29L107.22 3.29Z" id="aVrFP6hY4"></path><path d="M126.14 18.85L126.14 3.17L132.14 3.17L132.1 28.96L125.34 28.96L115.66 12.44L115.8 29.01L109.83 28.96L109.83 3.22L116.8 3.17L126.14 18.85Z" id="auIAxS2J0"></path><path d="M126.14 18.85L126.14 3.17L132.14 3.17L132.1 28.96L125.34 28.96L115.66 12.44L115.8 29.01L109.83 28.96L109.83 3.22L116.8 3.17L126.14 18.85Z" id="ahzYjzNaJ"></path><path d="M134.07 9.07L134.02 3.21L154.48 3.16L154.48 9.02L147.46 9.02L147.44 29.01L141.58 29.01L141.58 8.97L134.07 9.07Z" id="b2Oe844I59"></path><path d="M134.07 9.07L134.02 3.21L154.48 3.16L154.48 9.02L147.46 9.02L147.44 29.01L141.58 29.01L141.58 8.97L134.07 9.07Z" id="c1rm0bg4He"></path><path d="M182.45 24.59L193.16 24.59L193.16 29.01L176.48 29.01L176.48 3.21L182.45 3.21L182.45 24.59Z" id="f5Qa6lKO6h"></path><path d="M182.45 24.55L193.16 24.55L193.16 28.97L176.48 28.97L176.48 3.17L182.45 3.17L182.45 24.55Z" id="ewcDZFdGK"></path><path d="M28.04 24.67L38.75 24.67L38.75 29.09L22.07 29.09L22.07 3.29L28.04 3.29L28.04 24.67Z" id="d1ASlfKBVS"></path><path d="M19.85 3.29L19.85 8.15L9.14 8.15L9.14 14.71L15 14.71L15 18.84L9.14 18.87L9.14 24.67L19.85 24.73L19.85 29.09L3.16 29.09L3.16 3.29L19.85 3.29Z" id="fJJIzf96I"></path><path d="M57.93 3.29L57.93 8.15L47.22 8.15L47.22 14.71L53.08 14.71L53.08 18.84L47.22 18.87L47.22 24.67L57.93 24.73L57.93 29.09L41.25 29.09L41.25 3.29L57.93 3.29Z" id="gmuJiukrz"></path><path d="M66.75 8.23L71.49 14.81L72.36 14.81L77.07 8.23L77.13 29.09L83.06 29.09L83.06 3.29L75.94 3.29L71.9 7.89L68.09 3.29L60.77 3.29L60.77 29.09L66.75 29.09L66.75 8.23Z" id="bvGq3CW2e"></path><path d="M102.99 3.36L102.99 8.22L92.28 8.22L92.28 14.79L98.14 14.79L98.14 18.92L92.28 18.95L92.28 24.74L102.99 24.81L102.99 29.16L86.3 29.16L86.3 3.36L102.99 3.36Z" id="bx3HaHN3o"></path><path d="M129.58 9.07L129.53 3.21L149.99 3.16L149.99 9.02L142.97 9.02L142.96 29.01L137.09 29.01L137.09 8.97L129.58 9.07Z" id="a1rCTt76Z"></path><path d="M148.6 29.01L155.91 3.36" id="b3BaDIrSEd"></path><path d="M148.6 29.01L155.91 3.36" id="ecanPH13a"></path><path d="M121.93 18.84L121.93 3.16L127.93 3.16L127.88 28.95L121.12 28.95L111.45 12.43L111.59 29L105.61 28.95L105.61 3.21L112.59 3.16L121.93 18.84Z" id="h1Zy8mQonY"></path><path d="" id="dm1mCDYRf"></path><path d="M157.56 29.01L163.58 9.13L169.43 29.01L174.61 28.99L166.62 3.36L160.54 3.36L152.24 28.99L157.56 29.01Z" id="c2ZoPnl4z"></path><path d="M160.61 18.27L166.45 18.27L167.56 22.55L159.56 22.55L160.61 18.27Z" id="cyfVz9JE8"></path><path d="M153.7 29.01L159.71 9.13L165.57 29.01L170.75 28.99L162.75 3.36L156.67 3.36L148.37 28.99L153.7 29.01Z" id="g2aECmag58"></path><path d="M156.53 18.27L162.52 18.27L163.66 22.55L155.46 22.55L156.53 18.27Z" id="a1jI2ux24y"></path><path d="M178.22 24.62L188.93 24.62L188.93 29.04L172.24 29.04L172.24 3.21L178.22 3.21L178.22 24.62Z" id="a8lQ1HW5Yu"></path></defs><g><g><g><use xlink:href="#cyjhxnhSZ" opacity="1" fill="#2be6ab" fill-opacity="1"></use><g><use xlink:href="#cyjhxnhSZ" opacity="1" fill-opacity="0" stroke="#000000" stroke-width="1" stroke-opacity="0"></use></g></g><g><use xlink:href="#f21jlFH1gl" opacity="1" fill="#000000" fill-opacity="0"></use><g><use xlink:href="#f21jlFH1gl" opacity="1" fill-opacity="0" stroke="#000000" stroke-width="0" stroke-opacity="1"></use></g></g><g><use xlink:href="#c1fL9LpPiM" opacity="1" fill="#2be6ab" fill-opacity="1"></use><g><use xlink:href="#c1fL9LpPiM" opacity="1" fill-opacity="0" stroke="#000000" stroke-width="1" stroke-opacity="0"></use></g></g><g><use xlink:href="#b1yfhsxqK" opacity="1" fill="#000000" fill-opacity="0"></use><g><use xlink:href="#b1yfhsxqK" opacity="1" fill-opacity="0" stroke="#000000" stroke-width="0" stroke-opacity="1"></use></g></g><g><use xlink:href="#bU2O5BfzM" opacity="1" fill="#2be6ab" fill-opacity="1"></use><g><use xlink:href="#bU2O5BfzM" opacity="1" fill-opacity="0" stroke="#000000" stroke-width="1" stroke-opacity="0"></use></g></g><g><use xlink:href="#b2Ah50qcHZ" opacity="1" fill="#000000" fill-opacity="0"></use><g><use xlink:href="#b2Ah50qcHZ" opacity="1" fill-opacity="0" stroke="#000000" stroke-width="0" stroke-opacity="1"></use></g></g><g><use xlink:href="#d1qVrzqF6u" opacity="1" fill="#2be6ab" fill-opacity="1"></use><g><use xlink:href="#d1qVrzqF6u" opacity="1" fill-opacity="0" stroke="#000000" stroke-width="1" stroke-opacity="0"></use></g></g><g><use xlink:href="#a4NDwBiery" opacity="1" fill="#000000" fill-opacity="0"></use><g><use xlink:href="#a4NDwBiery" opacity="1" fill-opacity="0" stroke="#000000" stroke-width="0" stroke-opacity="1"></use></g></g><g><use xlink:href="#bmBgEH3ji" opacity="1" fill="#2be6ab" fill-opacity="1"></use><g><use xlink:href="#bmBgEH3ji" opacity="1" fill-opacity="0" stroke="#000000" stroke-width="1" stroke-opacity="0"></use></g></g><g><use xlink:href="#aVrFP6hY4" opacity="1" fill="#000000" fill-opacity="0"></use><g><use xlink:href="#aVrFP6hY4" opacity="1" fill-opacity="0" stroke="#000000" stroke-width="0" stroke-opacity="1"></use></g></g><g><use xlink:href="#auIAxS2J0" opacity="1" fill="#000000" fill-opacity="0"></use><g><use xlink:href="#auIAxS2J0" opacity="1" fill-opacity="0" stroke="#000000" stroke-width="0" stroke-opacity="1"></use></g></g><g><use xlink:href="#ahzYjzNaJ" opacity="1" fill="#2be6ab" fill-opacity="1"></use><g><use xlink:href="#ahzYjzNaJ" opacity="1" fill-opacity="0" stroke="#000000" stroke-width="1" stroke-opacity="0"></use></g></g><g><use xlink:href="#b2Oe844I59" opacity="1" fill="#2be6ab" fill-opacity="1"></use><g><use xlink:href="#b2Oe844I59" opacity="1" fill-opacity="0" stroke="#000000" stroke-width="1" stroke-opacity="0"></use></g></g><g><use xlink:href="#c1rm0bg4He" opacity="1" fill="#000000" fill-opacity="0"></use><g><use xlink:href="#c1rm0bg4He" opacity="1" fill-opacity="0" stroke="#000000" stroke-width="0" stroke-opacity="1"></use></g></g><g><use xlink:href="#f5Qa6lKO6h" opacity="1" fill="#2be6ab" fill-opacity="1"></use><g><use xlink:href="#f5Qa6lKO6h" opacity="1" fill-opacity="0" stroke="#000000" stroke-width="1" stroke-opacity="0"></use></g></g><g><use xlink:href="#ewcDZFdGK" opacity="1" fill="#000000" fill-opacity="0"></use><g><use xlink:href="#ewcDZFdGK" opacity="1" fill-opacity="0" stroke="#000000" stroke-width="0" stroke-opacity="1"></use></g></g><g><use xlink:href="#d1ASlfKBVS" opacity="0.85" fill="#6a23b5" fill-opacity="1"></use></g><g><use xlink:href="#fJJIzf96I" opacity="0.85" fill="#6a23b5" fill-opacity="1"></use></g><g><use xlink:href="#gmuJiukrz" opacity="0.85" fill="#6a23b5" fill-opacity="1"></use></g><g><use xlink:href="#bvGq3CW2e" opacity="0.85" fill="#6a23b5" fill-opacity="1"></use></g><g><use xlink:href="#bx3HaHN3o" opacity="0.85" fill="#6a23b5" fill-opacity="1"></use></g><g><use xlink:href="#a1rCTt76Z" opacity="0.85" fill="#6a23b5" fill-opacity="1"></use></g><g><use xlink:href="#b3BaDIrSEd" opacity="0.7" fill="#6a23b5" fill-opacity="1"></use></g><g><use xlink:href="#ecanPH13a" opacity="0.7" fill="#6a23b5" fill-opacity="1"></use></g><g><use xlink:href="#h1Zy8mQonY" opacity="0.85" fill="#6a23b5" fill-opacity="1"></use></g><g><g><use xlink:href="#dm1mCDYRf" opacity="1" fill-opacity="0" stroke="#000000" stroke-width="1" stroke-opacity="1"></use></g></g><g><use xlink:href="#c2ZoPnl4z" opacity="1" fill="#2be6ab" fill-opacity="1"></use></g><g><use xlink:href="#cyfVz9JE8" opacity="1" fill="#2be6ab" fill-opacity="1"></use></g><g><use xlink:href="#g2aECmag58" opacity="0.85" fill="#6a23b5" fill-opacity="1"></use></g><g><use xlink:href="#a1jI2ux24y" opacity="0.85" fill="#6a23b5" fill-opacity="1"></use></g><g><use xlink:href="#a8lQ1HW5Yu" opacity="0.85" fill="#6a23b5" fill-opacity="1"></use></g></g></g></svg>